<svg width="1440" height="556" viewBox="0 0 1440 556" fill="none" xmlns="http://www.w3.org/2000/svg">
<g clip-path="url(#clip0_1_1945)">
<mask id="mask0_1_1945" style="mask-type:luminance" maskUnits="userSpaceOnUse" x="0" y="0" width="1440" height="556">
<path d="M1440 0H0V556H1440V0Z" fill="white"/>
</mask>
<g mask="url(#mask0_1_1945)">
<g opacity="0.64">
<path d="M79.2486 33.9902H22C13.3015 33.9902 6.25 41.0417 6.25 49.7402V104.812C6.25 113.511 13.3015 120.562 22 120.562H79.2486C87.9471 120.562 94.9986 113.511 94.9986 104.812V49.7402C94.9986 41.0417 87.9471 33.9902 79.2486 33.9902Z" fill="white" stroke="#F1F1F1" stroke-width="0.5"/>
<path d="M79.2486 121.062H22C13.3015 121.062 6.25 128.113 6.25 136.812V191.883C6.25 200.582 13.3015 207.633 22 207.633H79.2486C87.9471 207.633 94.9986 200.582 94.9986 191.883V136.812C94.9986 128.113 87.9471 121.062 79.2486 121.062Z" fill="white" stroke="#F1F1F1" stroke-width="0.5"/>
<path d="M79.2486 208.134H22C13.3015 208.134 6.25 215.186 6.25 223.884V278.956C6.25 287.654 13.3015 294.706 22 294.706H79.2486C87.9471 294.706 94.9986 287.654 94.9986 278.956V223.884C94.9986 215.186 87.9471 208.134 79.2486 208.134Z" fill="white" stroke="#F1F1F1" stroke-width="0.5"/>
<path d="M79.2486 295.206H22C13.3015 295.206 6.25 302.258 6.25 310.956V366.028C6.25 374.726 13.3015 381.778 22 381.778H79.2486C87.9471 381.778 94.9986 374.726 94.9986 366.028V310.956C94.9986 302.258 87.9471 295.206 79.2486 295.206Z" fill="white" stroke="#F1F1F1" stroke-width="0.5"/>
<path d="M79.2486 382.277H22C13.3015 382.277 6.25 389.329 6.25 398.027V453.099C6.25 461.798 13.3015 468.849 22 468.849H79.2486C87.9471 468.849 94.9986 461.798 94.9986 453.099V398.027C94.9986 389.329 87.9471 382.277 79.2486 382.277Z" fill="white" stroke="#F1F1F1" stroke-width="0.5"/>
<path d="M79.2486 469.35H22C13.3015 469.35 6.25 476.401 6.25 485.1V540.171C6.25 548.87 13.3015 555.921 22 555.921H79.2486C87.9471 555.921 94.9986 548.87 94.9986 540.171V485.1C94.9986 476.401 87.9471 469.35 79.2486 469.35Z" fill="white" stroke="#F1F1F1" stroke-width="0.5"/>
<path d="M168.498 33.9902H111.249C102.551 33.9902 95.499 41.0417 95.499 49.7402V104.812C95.499 113.511 102.551 120.562 111.249 120.562H168.498C177.196 120.562 184.248 113.511 184.248 104.812V49.7402C184.248 41.0417 177.196 33.9902 168.498 33.9902Z" fill="white" stroke="#F1F1F1" stroke-width="0.5"/>
<path d="M168.497 121.062H111.248C102.55 121.062 95.498 128.113 95.498 136.812V191.883C95.498 200.582 102.55 207.633 111.248 207.633H168.497C177.195 207.633 184.247 200.582 184.247 191.883V136.812C184.247 128.113 177.195 121.062 168.497 121.062Z" fill="white" stroke="#F1F1F1" stroke-width="0.5"/>
<path d="M168.498 208.134H111.249C102.551 208.134 95.499 215.186 95.499 223.884V278.956C95.499 287.654 102.551 294.706 111.249 294.706H168.498C177.196 294.706 184.248 287.654 184.248 278.956V223.884C184.248 215.186 177.196 208.134 168.498 208.134Z" fill="white" stroke="#F1F1F1" stroke-width="0.5"/>
<path d="M168.497 295.206H111.248C102.55 295.206 95.498 302.258 95.498 310.956V366.028C95.498 374.726 102.55 381.778 111.248 381.778H168.497C177.195 381.778 184.247 374.726 184.247 366.028V310.956C184.247 302.258 177.195 295.206 168.497 295.206Z" fill="white" stroke="#F1F1F1" stroke-width="0.5"/>
<path d="M168.497 382.277H111.248C102.55 382.277 95.498 389.329 95.498 398.027V453.099C95.498 461.798 102.55 468.849 111.248 468.849H168.497C177.195 468.849 184.247 461.798 184.247 453.099V398.027C184.247 389.329 177.195 382.277 168.497 382.277Z" fill="white" stroke="#F1F1F1" stroke-width="0.5"/>
<path d="M168.498 469.35H111.249C102.551 469.35 95.499 476.401 95.499 485.1V540.171C95.499 548.87 102.551 555.921 111.249 555.921H168.498C177.196 555.921 184.248 548.87 184.248 540.171V485.1C184.248 476.401 177.196 469.35 168.498 469.35Z" fill="white" stroke="#F1F1F1" stroke-width="0.5"/>
<path d="M257.746 33.9902H200.497C191.799 33.9902 184.747 41.0417 184.747 49.7402V104.812C184.747 113.511 191.799 120.562 200.497 120.562H257.746C266.444 120.562 273.496 113.511 273.496 104.812V49.7402C273.496 41.0417 266.444 33.9902 257.746 33.9902Z" fill="white" stroke="#F1F1F1" stroke-width="0.5"/>
<path d="M257.746 121.062H200.497C191.799 121.062 184.747 128.113 184.747 136.812V191.883C184.747 200.582 191.799 207.633 200.497 207.633H257.746C266.444 207.633 273.496 200.582 273.496 191.883V136.812C273.496 128.113 266.444 121.062 257.746 121.062Z" fill="white" stroke="#F1F1F1" stroke-width="0.5"/>
<path d="M257.746 208.134H200.497C191.799 208.134 184.747 215.186 184.747 223.884V278.956C184.747 287.654 191.799 294.706 200.497 294.706H257.746C266.444 294.706 273.496 287.654 273.496 278.956V223.884C273.496 215.186 266.444 208.134 257.746 208.134Z" fill="white" stroke="#F1F1F1" stroke-width="0.5"/>
<path d="M257.746 295.206H200.497C191.799 295.206 184.747 302.258 184.747 310.956V366.028C184.747 374.726 191.799 381.778 200.497 381.778H257.746C266.444 381.778 273.496 374.726 273.496 366.028V310.956C273.496 302.258 266.444 295.206 257.746 295.206Z" fill="white" stroke="#F1F1F1" stroke-width="0.5"/>
<path d="M257.746 382.277H200.497C191.799 382.277 184.747 389.329 184.747 398.027V453.099C184.747 461.798 191.799 468.849 200.497 468.849H257.746C266.444 468.849 273.496 461.798 273.496 453.099V398.027C273.496 389.329 266.444 382.277 257.746 382.277Z" fill="white" stroke="#F1F1F1" stroke-width="0.5"/>
<path d="M257.746 469.35H200.497C191.799 469.35 184.747 476.401 184.747 485.1V540.171C184.747 548.87 191.799 555.921 200.497 555.921H257.746C266.444 555.921 273.496 548.87 273.496 540.171V485.1C273.496 476.401 266.444 469.35 257.746 469.35Z" fill="white" stroke="#F1F1F1" stroke-width="0.5"/>
<path d="M346.995 33.9902H289.746C281.048 33.9902 273.996 41.0417 273.996 49.7402V104.812C273.996 113.511 281.048 120.562 289.746 120.562H346.995C355.693 120.562 362.745 113.511 362.745 104.812V49.7402C362.745 41.0417 355.693 33.9902 346.995 33.9902Z" fill="white" stroke="#F1F1F1" stroke-width="0.5"/>
<path d="M346.995 121.062H289.746C281.048 121.062 273.996 128.113 273.996 136.812V191.883C273.996 200.582 281.048 207.633 289.746 207.633H346.995C355.693 207.633 362.745 200.582 362.745 191.883V136.812C362.745 128.113 355.693 121.062 346.995 121.062Z" fill="white" stroke="#F1F1F1" stroke-width="0.5"/>
<path d="M346.995 208.134H289.746C281.048 208.134 273.996 215.186 273.996 223.884V278.956C273.996 287.654 281.048 294.706 289.746 294.706H346.995C355.693 294.706 362.745 287.654 362.745 278.956V223.884C362.745 215.186 355.693 208.134 346.995 208.134Z" fill="white" stroke="#F1F1F1" stroke-width="0.5"/>
<path d="M346.995 295.206H289.746C281.048 295.206 273.996 302.258 273.996 310.956V366.028C273.996 374.726 281.048 381.778 289.746 381.778H346.995C355.693 381.778 362.745 374.726 362.745 366.028V310.956C362.745 302.258 355.693 295.206 346.995 295.206Z" fill="white" stroke="#F1F1F1" stroke-width="0.5"/>
<path d="M346.995 382.277H289.746C281.048 382.277 273.996 389.329 273.996 398.027V453.099C273.996 461.798 281.048 468.849 289.746 468.849H346.995C355.693 468.849 362.745 461.798 362.745 453.099V398.027C362.745 389.329 355.693 382.277 346.995 382.277Z" fill="white" stroke="#F1F1F1" stroke-width="0.5"/>
<path d="M346.995 469.35H289.746C281.048 469.35 273.996 476.401 273.996 485.1V540.171C273.996 548.87 281.048 555.921 289.746 555.921H346.995C355.693 555.921 362.745 548.87 362.745 540.171V485.1C362.745 476.401 355.693 469.35 346.995 469.35Z" fill="white" stroke="#F1F1F1" stroke-width="0.5"/>
<path d="M436.243 33.9902H378.994C370.295 33.9902 363.244 41.0417 363.244 49.7402V104.812C363.244 113.511 370.295 120.562 378.994 120.562H436.243C444.941 120.562 451.993 113.511 451.993 104.812V49.7402C451.993 41.0417 444.941 33.9902 436.243 33.9902Z" fill="white" stroke="#F1F1F1" stroke-width="0.5"/>
<path d="M436.243 121.062H378.994C370.295 121.062 363.244 128.113 363.244 136.812V191.883C363.244 200.582 370.295 207.633 378.994 207.633H436.243C444.941 207.633 451.993 200.582 451.993 191.883V136.812C451.993 128.113 444.941 121.062 436.243 121.062Z" fill="white" stroke="#F1F1F1" stroke-width="0.5"/>
<path d="M436.243 208.134H378.994C370.295 208.134 363.244 215.186 363.244 223.884V278.956C363.244 287.654 370.295 294.706 378.994 294.706H436.243C444.941 294.706 451.993 287.654 451.993 278.956V223.884C451.993 215.186 444.941 208.134 436.243 208.134Z" fill="white" stroke="#F1F1F1" stroke-width="0.5"/>
<path d="M436.243 295.206H378.994C370.295 295.206 363.244 302.258 363.244 310.956V366.028C363.244 374.726 370.295 381.778 378.994 381.778H436.243C444.941 381.778 451.993 374.726 451.993 366.028V310.956C451.993 302.258 444.941 295.206 436.243 295.206Z" fill="white" stroke="#F1F1F1" stroke-width="0.5"/>
<path d="M436.243 382.277H378.994C370.295 382.277 363.244 389.329 363.244 398.027V453.099C363.244 461.798 370.295 468.849 378.994 468.849H436.243C444.941 468.849 451.993 461.798 451.993 453.099V398.027C451.993 389.329 444.941 382.277 436.243 382.277Z" fill="white" stroke="#F1F1F1" stroke-width="0.5"/>
<path d="M436.243 469.35H378.994C370.295 469.35 363.244 476.401 363.244 485.1V540.171C363.244 548.87 370.295 555.921 378.994 555.921H436.243C444.941 555.921 451.993 548.87 451.993 540.171V485.1C451.993 476.401 444.941 469.35 436.243 469.35Z" fill="white" stroke="#F1F1F1" stroke-width="0.5"/>
<path d="M525.491 33.9902H468.243C459.544 33.9902 452.493 41.0417 452.493 49.7402V104.812C452.493 113.511 459.544 120.562 468.243 120.562H525.491C534.19 120.562 541.241 113.511 541.241 104.812V49.7402C541.241 41.0417 534.19 33.9902 525.491 33.9902Z" fill="white" stroke="#F1F1F1" stroke-width="0.5"/>
<path d="M525.491 121.062H468.243C459.544 121.062 452.493 128.113 452.493 136.812V191.883C452.493 200.582 459.544 207.633 468.243 207.633H525.491C534.19 207.633 541.241 200.582 541.241 191.883V136.812C541.241 128.113 534.19 121.062 525.491 121.062Z" fill="white" stroke="#F1F1F1" stroke-width="0.5"/>
<path d="M525.491 208.134H468.243C459.544 208.134 452.493 215.186 452.493 223.884V278.956C452.493 287.654 459.544 294.706 468.243 294.706H525.491C534.19 294.706 541.241 287.654 541.241 278.956V223.884C541.241 215.186 534.19 208.134 525.491 208.134Z" fill="white" stroke="#F1F1F1" stroke-width="0.5"/>
<path d="M525.491 295.206H468.243C459.544 295.206 452.493 302.258 452.493 310.956V366.028C452.493 374.726 459.544 381.778 468.243 381.778H525.491C534.19 381.778 541.241 374.726 541.241 366.028V310.956C541.241 302.258 534.19 295.206 525.491 295.206Z" fill="white" stroke="#F1F1F1" stroke-width="0.5"/>
<path d="M525.491 382.277H468.243C459.544 382.277 452.493 389.329 452.493 398.027V453.099C452.493 461.798 459.544 468.849 468.243 468.849H525.491C534.19 468.849 541.241 461.798 541.241 453.099V398.027C541.241 389.329 534.19 382.277 525.491 382.277Z" fill="white" stroke="#F1F1F1" stroke-width="0.5"/>
<path d="M525.491 469.35H468.243C459.544 469.35 452.493 476.401 452.493 485.1V540.171C452.493 548.87 459.544 555.921 468.243 555.921H525.491C534.19 555.921 541.241 548.87 541.241 540.171V485.1C541.241 476.401 534.19 469.35 525.491 469.35Z" fill="white" stroke="#F1F1F1" stroke-width="0.5"/>
<path d="M614.741 33.9902H557.492C548.793 33.9902 541.742 41.0417 541.742 49.7402V104.812C541.742 113.511 548.793 120.562 557.492 120.562H614.741C623.439 120.562 630.491 113.511 630.491 104.812V49.7402C630.491 41.0417 623.439 33.9902 614.741 33.9902Z" fill="white" stroke="#F1F1F1" stroke-width="0.5"/>
<path d="M614.741 121.062H557.492C548.793 121.062 541.742 128.113 541.742 136.812V191.883C541.742 200.582 548.793 207.633 557.492 207.633H614.741C623.439 207.633 630.491 200.582 630.491 191.883V136.812C630.491 128.113 623.439 121.062 614.741 121.062Z" fill="white" stroke="#F1F1F1" stroke-width="0.5"/>
<path d="M614.741 208.134H557.492C548.793 208.134 541.742 215.186 541.742 223.884V278.956C541.742 287.654 548.793 294.706 557.492 294.706H614.741C623.439 294.706 630.491 287.654 630.491 278.956V223.884C630.491 215.186 623.439 208.134 614.741 208.134Z" fill="white" stroke="#F1F1F1" stroke-width="0.5"/>
<path d="M614.741 295.206H557.492C548.793 295.206 541.742 302.258 541.742 310.956V366.028C541.742 374.726 548.793 381.778 557.492 381.778H614.741C623.439 381.778 630.491 374.726 630.491 366.028V310.956C630.491 302.258 623.439 295.206 614.741 295.206Z" fill="white" stroke="#F1F1F1" stroke-width="0.5"/>
<path d="M614.741 382.277H557.492C548.793 382.277 541.742 389.329 541.742 398.027V453.099C541.742 461.798 548.793 468.849 557.492 468.849H614.741C623.439 468.849 630.491 461.798 630.491 453.099V398.027C630.491 389.329 623.439 382.277 614.741 382.277Z" fill="white" stroke="#F1F1F1" stroke-width="0.5"/>
<path d="M614.741 469.35H557.492C548.793 469.35 541.742 476.401 541.742 485.1V540.171C541.742 548.87 548.793 555.921 557.492 555.921H614.741C623.439 555.921 630.491 548.87 630.491 540.171V485.1C630.491 476.401 623.439 469.35 614.741 469.35Z" fill="white" stroke="#F1F1F1" stroke-width="0.5"/>
<path d="M703.989 33.9902H646.74C638.042 33.9902 630.99 41.0417 630.99 49.7402V104.812C630.99 113.511 638.042 120.562 646.74 120.562H703.989C712.687 120.562 719.739 113.511 719.739 104.812V49.7402C719.739 41.0417 712.687 33.9902 703.989 33.9902Z" fill="white" stroke="#F1F1F1" stroke-width="0.5"/>
<path d="M703.989 121.062H646.74C638.042 121.062 630.99 128.113 630.99 136.812V191.883C630.99 200.582 638.042 207.633 646.74 207.633H703.989C712.687 207.633 719.739 200.582 719.739 191.883V136.812C719.739 128.113 712.687 121.062 703.989 121.062Z" fill="white" stroke="#F1F1F1" stroke-width="0.5"/>
<path d="M703.989 208.134H646.74C638.042 208.134 630.99 215.186 630.99 223.884V278.956C630.99 287.654 638.042 294.706 646.74 294.706H703.989C712.687 294.706 719.739 287.654 719.739 278.956V223.884C719.739 215.186 712.687 208.134 703.989 208.134Z" fill="white" stroke="#F1F1F1" stroke-width="0.5"/>
<path d="M703.989 295.206H646.74C638.042 295.206 630.99 302.258 630.99 310.956V366.028C630.99 374.726 638.042 381.778 646.74 381.778H703.989C712.687 381.778 719.739 374.726 719.739 366.028V310.956C719.739 302.258 712.687 295.206 703.989 295.206Z" fill="white" stroke="#F1F1F1" stroke-width="0.5"/>
<path d="M703.989 382.277H646.74C638.042 382.277 630.99 389.329 630.99 398.027V453.099C630.99 461.798 638.042 468.849 646.74 468.849H703.989C712.687 468.849 719.739 461.798 719.739 453.099V398.027C719.739 389.329 712.687 382.277 703.989 382.277Z" fill="white" stroke="#F1F1F1" stroke-width="0.5"/>
<path d="M703.989 469.35H646.74C638.042 469.35 630.99 476.401 630.99 485.1V540.171C630.99 548.87 638.042 555.921 646.74 555.921H703.989C712.687 555.921 719.739 548.87 719.739 540.171V485.1C719.739 476.401 712.687 469.35 703.989 469.35Z" fill="white" stroke="#F1F1F1" stroke-width="0.5"/>
<path d="M793.238 33.9902H735.989C727.291 33.9902 720.239 41.0417 720.239 49.7402V104.812C720.239 113.511 727.291 120.562 735.989 120.562H793.238C801.936 120.562 808.988 113.511 808.988 104.812V49.7402C808.988 41.0417 801.936 33.9902 793.238 33.9902Z" fill="white" stroke="#F1F1F1" stroke-width="0.5"/>
<path d="M793.238 121.062H735.989C727.291 121.062 720.239 128.113 720.239 136.812V191.883C720.239 200.582 727.291 207.633 735.989 207.633H793.238C801.936 207.633 808.988 200.582 808.988 191.883V136.812C808.988 128.113 801.936 121.062 793.238 121.062Z" fill="white" stroke="#F1F1F1" stroke-width="0.5"/>
<path d="M793.238 208.134H735.989C727.291 208.134 720.239 215.186 720.239 223.884V278.956C720.239 287.654 727.291 294.706 735.989 294.706H793.238C801.936 294.706 808.988 287.654 808.988 278.956V223.884C808.988 215.186 801.936 208.134 793.238 208.134Z" fill="white" stroke="#F1F1F1" stroke-width="0.5"/>
<path d="M793.238 295.206H735.989C727.291 295.206 720.239 302.258 720.239 310.956V366.028C720.239 374.726 727.291 381.778 735.989 381.778H793.238C801.936 381.778 808.988 374.726 808.988 366.028V310.956C808.988 302.258 801.936 295.206 793.238 295.206Z" fill="white" stroke="#F1F1F1" stroke-width="0.5"/>
<path d="M793.238 382.277H735.989C727.291 382.277 720.239 389.329 720.239 398.027V453.099C720.239 461.798 727.291 468.849 735.989 468.849H793.238C801.936 468.849 808.988 461.798 808.988 453.099V398.027C808.988 389.329 801.936 382.277 793.238 382.277Z" fill="white" stroke="#F1F1F1" stroke-width="0.5"/>
<path d="M793.238 469.35H735.989C727.291 469.35 720.239 476.401 720.239 485.1V540.171C720.239 548.87 727.291 555.921 735.989 555.921H793.238C801.936 555.921 808.988 548.87 808.988 540.171V485.1C808.988 476.401 801.936 469.35 793.238 469.35Z" fill="white" stroke="#F1F1F1" stroke-width="0.5"/>
<path d="M882.486 33.9902H825.237C816.539 33.9902 809.487 41.0417 809.487 49.7402V104.812C809.487 113.511 816.539 120.562 825.237 120.562H882.486C891.184 120.562 898.236 113.511 898.236 104.812V49.7402C898.236 41.0417 891.184 33.9902 882.486 33.9902Z" fill="white" stroke="#F1F1F1" stroke-width="0.5"/>
<path d="M882.486 121.062H825.237C816.539 121.062 809.487 128.113 809.487 136.812V191.883C809.487 200.582 816.539 207.633 825.237 207.633H882.486C891.184 207.633 898.236 200.582 898.236 191.883V136.812C898.236 128.113 891.184 121.062 882.486 121.062Z" fill="white" stroke="#F1F1F1" stroke-width="0.5"/>
<path d="M882.486 208.134H825.237C816.539 208.134 809.487 215.186 809.487 223.884V278.956C809.487 287.654 816.539 294.706 825.237 294.706H882.486C891.184 294.706 898.236 287.654 898.236 278.956V223.884C898.236 215.186 891.184 208.134 882.486 208.134Z" fill="white" stroke="#F1F1F1" stroke-width="0.5"/>
<path d="M882.486 295.206H825.237C816.539 295.206 809.487 302.258 809.487 310.956V366.028C809.487 374.726 816.539 381.778 825.237 381.778H882.486C891.184 381.778 898.236 374.726 898.236 366.028V310.956C898.236 302.258 891.184 295.206 882.486 295.206Z" fill="white" stroke="#F1F1F1" stroke-width="0.5"/>
<path d="M882.486 382.277H825.237C816.539 382.277 809.487 389.329 809.487 398.027V453.099C809.487 461.798 816.539 468.849 825.237 468.849H882.486C891.184 468.849 898.236 461.798 898.236 453.099V398.027C898.236 389.329 891.184 382.277 882.486 382.277Z" fill="white" stroke="#F1F1F1" stroke-width="0.5"/>
<path d="M882.486 469.35H825.237C816.539 469.35 809.487 476.401 809.487 485.1V540.171C809.487 548.87 816.539 555.921 825.237 555.921H882.486C891.184 555.921 898.236 548.87 898.236 540.171V485.1C898.236 476.401 891.184 469.35 882.486 469.35Z" fill="white" stroke="#F1F1F1" stroke-width="0.5"/>
<path d="M971.735 33.9902H914.486C905.788 33.9902 898.736 41.0417 898.736 49.7402V104.812C898.736 113.511 905.788 120.562 914.486 120.562H971.735C980.433 120.562 987.485 113.511 987.485 104.812V49.7402C987.485 41.0417 980.433 33.9902 971.735 33.9902Z" fill="white" stroke="#F1F1F1" stroke-width="0.5"/>
<path d="M971.735 121.062H914.486C905.788 121.062 898.736 128.113 898.736 136.812V191.883C898.736 200.582 905.788 207.633 914.486 207.633H971.735C980.433 207.633 987.485 200.582 987.485 191.883V136.812C987.485 128.113 980.433 121.062 971.735 121.062Z" fill="white" stroke="#F1F1F1" stroke-width="0.5"/>
<path d="M971.735 208.134H914.486C905.788 208.134 898.736 215.186 898.736 223.884V278.956C898.736 287.654 905.788 294.706 914.486 294.706H971.735C980.433 294.706 987.485 287.654 987.485 278.956V223.884C987.485 215.186 980.433 208.134 971.735 208.134Z" fill="white" stroke="#F1F1F1" stroke-width="0.5"/>
<path d="M971.735 295.206H914.486C905.788 295.206 898.736 302.258 898.736 310.956V366.028C898.736 374.726 905.788 381.778 914.486 381.778H971.735C980.433 381.778 987.485 374.726 987.485 366.028V310.956C987.485 302.258 980.433 295.206 971.735 295.206Z" fill="white" stroke="#F1F1F1" stroke-width="0.5"/>
<path d="M971.735 382.277H914.486C905.788 382.277 898.736 389.329 898.736 398.027V453.099C898.736 461.798 905.788 468.849 914.486 468.849H971.735C980.433 468.849 987.485 461.798 987.485 453.099V398.027C987.485 389.329 980.433 382.277 971.735 382.277Z" fill="white" stroke="#F1F1F1" stroke-width="0.5"/>
<path d="M971.735 469.35H914.486C905.788 469.35 898.736 476.401 898.736 485.1V540.171C898.736 548.87 905.788 555.921 914.486 555.921H971.735C980.433 555.921 987.485 548.87 987.485 540.171V485.1C987.485 476.401 980.433 469.35 971.735 469.35Z" fill="white" stroke="#F1F1F1" stroke-width="0.5"/>
<path d="M1060.98 33.9902H1003.73C995.035 33.9902 987.984 41.0417 987.984 49.7402V104.812C987.984 113.511 995.035 120.562 1003.73 120.562H1060.98C1069.68 120.562 1076.73 113.511 1076.73 104.812V49.7402C1076.73 41.0417 1069.68 33.9902 1060.98 33.9902Z" fill="white" stroke="#F1F1F1" stroke-width="0.5"/>
<path d="M1060.98 121.062H1003.73C995.035 121.062 987.984 128.113 987.984 136.812V191.883C987.984 200.582 995.035 207.633 1003.73 207.633H1060.98C1069.68 207.633 1076.73 200.582 1076.73 191.883V136.812C1076.73 128.113 1069.68 121.062 1060.98 121.062Z" fill="white" stroke="#F1F1F1" stroke-width="0.5"/>
<path d="M1060.98 208.134H1003.73C995.035 208.134 987.984 215.186 987.984 223.884V278.956C987.984 287.654 995.035 294.706 1003.73 294.706H1060.98C1069.68 294.706 1076.73 287.654 1076.73 278.956V223.884C1076.73 215.186 1069.68 208.134 1060.98 208.134Z" fill="white" stroke="#F1F1F1" stroke-width="0.5"/>
<path d="M1060.98 295.206H1003.73C995.035 295.206 987.984 302.258 987.984 310.956V366.028C987.984 374.726 995.035 381.778 1003.73 381.778H1060.98C1069.68 381.778 1076.73 374.726 1076.73 366.028V310.956C1076.73 302.258 1069.68 295.206 1060.98 295.206Z" fill="white" stroke="#F1F1F1" stroke-width="0.5"/>
<path d="M1060.98 382.277H1003.73C995.035 382.277 987.984 389.329 987.984 398.027V453.099C987.984 461.798 995.035 468.849 1003.73 468.849H1060.98C1069.68 468.849 1076.73 461.798 1076.73 453.099V398.027C1076.73 389.329 1069.68 382.277 1060.98 382.277Z" fill="white" stroke="#F1F1F1" stroke-width="0.5"/>
<path d="M1060.98 469.35H1003.73C995.035 469.35 987.984 476.401 987.984 485.1V540.171C987.984 548.87 995.035 555.921 1003.73 555.921H1060.98C1069.68 555.921 1076.73 548.87 1076.73 540.171V485.1C1076.73 476.401 1069.68 469.35 1060.98 469.35Z" fill="white" stroke="#F1F1F1" stroke-width="0.5"/>
<path d="M1150.23 33.9902H1092.98C1084.28 33.9902 1077.23 41.0417 1077.23 49.7402V104.812C1077.23 113.511 1084.28 120.562 1092.98 120.562H1150.23C1158.93 120.562 1165.98 113.511 1165.98 104.812V49.7402C1165.98 41.0417 1158.93 33.9902 1150.23 33.9902Z" fill="white" stroke="#F1F1F1" stroke-width="0.5"/>
<path d="M1150.23 121.062H1092.98C1084.28 121.062 1077.23 128.113 1077.23 136.812V191.883C1077.23 200.582 1084.28 207.633 1092.98 207.633H1150.23C1158.93 207.633 1165.98 200.582 1165.98 191.883V136.812C1165.98 128.113 1158.93 121.062 1150.23 121.062Z" fill="white" stroke="#F1F1F1" stroke-width="0.5"/>
<path d="M1150.23 208.134H1092.98C1084.28 208.134 1077.23 215.186 1077.23 223.884V278.956C1077.23 287.654 1084.28 294.706 1092.98 294.706H1150.23C1158.93 294.706 1165.98 287.654 1165.98 278.956V223.884C1165.98 215.186 1158.93 208.134 1150.23 208.134Z" fill="white" stroke="#F1F1F1" stroke-width="0.5"/>
<path d="M1150.23 295.206H1092.98C1084.28 295.206 1077.23 302.258 1077.23 310.956V366.028C1077.23 374.726 1084.28 381.778 1092.98 381.778H1150.23C1158.93 381.778 1165.98 374.726 1165.98 366.028V310.956C1165.98 302.258 1158.93 295.206 1150.23 295.206Z" fill="white" stroke="#F1F1F1" stroke-width="0.5"/>
<path d="M1150.23 382.277H1092.98C1084.28 382.277 1077.23 389.329 1077.23 398.027V453.099C1077.23 461.798 1084.28 468.849 1092.98 468.849H1150.23C1158.93 468.849 1165.98 461.798 1165.98 453.099V398.027C1165.98 389.329 1158.93 382.277 1150.23 382.277Z" fill="white" stroke="#F1F1F1" stroke-width="0.5"/>
<path d="M1150.23 469.35H1092.98C1084.28 469.35 1077.23 476.401 1077.23 485.1V540.171C1077.23 548.87 1084.28 555.921 1092.98 555.921H1150.23C1158.93 555.921 1165.98 548.87 1165.98 540.171V485.1C1165.98 476.401 1158.93 469.35 1150.23 469.35Z" fill="white" stroke="#F1F1F1" stroke-width="0.5"/>
<path d="M1239.48 33.9902H1182.23C1173.53 33.9902 1166.48 41.0417 1166.48 49.7402V104.812C1166.48 113.511 1173.53 120.562 1182.23 120.562H1239.48C1248.18 120.562 1255.23 113.511 1255.23 104.812V49.7402C1255.23 41.0417 1248.18 33.9902 1239.48 33.9902Z" fill="white" stroke="#F1F1F1" stroke-width="0.5"/>
<path d="M1239.48 121.062H1182.23C1173.53 121.062 1166.48 128.113 1166.48 136.812V191.883C1166.48 200.582 1173.53 207.633 1182.23 207.633H1239.48C1248.18 207.633 1255.23 200.582 1255.23 191.883V136.812C1255.23 128.113 1248.18 121.062 1239.48 121.062Z" fill="white" stroke="#F1F1F1" stroke-width="0.5"/>
<path d="M1239.48 208.134H1182.23C1173.53 208.134 1166.48 215.186 1166.48 223.884V278.956C1166.48 287.654 1173.53 294.706 1182.23 294.706H1239.48C1248.18 294.706 1255.23 287.654 1255.23 278.956V223.884C1255.23 215.186 1248.18 208.134 1239.48 208.134Z" fill="white" stroke="#F1F1F1" stroke-width="0.5"/>
<path d="M1239.48 295.206H1182.23C1173.53 295.206 1166.48 302.258 1166.48 310.956V366.028C1166.48 374.726 1173.53 381.778 1182.23 381.778H1239.48C1248.18 381.778 1255.23 374.726 1255.23 366.028V310.956C1255.23 302.258 1248.18 295.206 1239.48 295.206Z" fill="white" stroke="#F1F1F1" stroke-width="0.5"/>
<path d="M1239.48 382.277H1182.23C1173.53 382.277 1166.48 389.329 1166.48 398.027V453.099C1166.48 461.798 1173.53 468.849 1182.23 468.849H1239.48C1248.18 468.849 1255.23 461.798 1255.23 453.099V398.027C1255.23 389.329 1248.18 382.277 1239.48 382.277Z" fill="white" stroke="#F1F1F1" stroke-width="0.5"/>
<path d="M1239.48 469.35H1182.23C1173.53 469.35 1166.48 476.401 1166.48 485.1V540.171C1166.48 548.87 1173.53 555.921 1182.23 555.921H1239.48C1248.18 555.921 1255.23 548.87 1255.23 540.171V485.1C1255.23 476.401 1248.18 469.35 1239.48 469.35Z" fill="white" stroke="#F1F1F1" stroke-width="0.5"/>
<path d="M1328.73 33.9902H1271.48C1262.78 33.9902 1255.73 41.0417 1255.73 49.7402V104.812C1255.73 113.511 1262.78 120.562 1271.48 120.562H1328.73C1337.43 120.562 1344.48 113.511 1344.48 104.812V49.7402C1344.48 41.0417 1337.43 33.9902 1328.73 33.9902Z" fill="white" stroke="#F1F1F1" stroke-width="0.5"/>
<path d="M1328.73 121.062H1271.48C1262.78 121.062 1255.73 128.113 1255.73 136.812V191.883C1255.73 200.582 1262.78 207.633 1271.48 207.633H1328.73C1337.43 207.633 1344.48 200.582 1344.48 191.883V136.812C1344.48 128.113 1337.43 121.062 1328.73 121.062Z" fill="white" stroke="#F1F1F1" stroke-width="0.5"/>
<path d="M1328.73 208.134H1271.48C1262.78 208.134 1255.73 215.186 1255.73 223.884V278.956C1255.73 287.654 1262.78 294.706 1271.48 294.706H1328.73C1337.43 294.706 1344.48 287.654 1344.48 278.956V223.884C1344.48 215.186 1337.43 208.134 1328.73 208.134Z" fill="white" stroke="#F1F1F1" stroke-width="0.5"/>
<path d="M1328.73 295.206H1271.48C1262.78 295.206 1255.73 302.258 1255.73 310.956V366.028C1255.73 374.726 1262.78 381.778 1271.48 381.778H1328.73C1337.43 381.778 1344.48 374.726 1344.48 366.028V310.956C1344.48 302.258 1337.43 295.206 1328.73 295.206Z" fill="white" stroke="#F1F1F1" stroke-width="0.5"/>
<path d="M1328.73 382.277H1271.48C1262.78 382.277 1255.73 389.329 1255.73 398.027V453.099C1255.73 461.798 1262.78 468.849 1271.48 468.849H1328.73C1337.43 468.849 1344.48 461.798 1344.48 453.099V398.027C1344.48 389.329 1337.43 382.277 1328.73 382.277Z" fill="white" stroke="#F1F1F1" stroke-width="0.5"/>
<path d="M1328.73 469.35H1271.48C1262.78 469.35 1255.73 476.401 1255.73 485.1V540.171C1255.73 548.87 1262.78 555.921 1271.48 555.921H1328.73C1337.43 555.921 1344.48 548.87 1344.48 540.171V485.1C1344.48 476.401 1337.43 469.35 1328.73 469.35Z" fill="white" stroke="#F1F1F1" stroke-width="0.5"/>
<path d="M1417.98 33.9902H1360.73C1352.03 33.9902 1344.98 41.0417 1344.98 49.7402V104.812C1344.98 113.511 1352.03 120.562 1360.73 120.562H1417.98C1426.68 120.562 1433.73 113.511 1433.73 104.812V49.7402C1433.73 41.0417 1426.68 33.9902 1417.98 33.9902Z" fill="white" stroke="#F1F1F1" stroke-width="0.5"/>
<path d="M1417.98 121.062H1360.73C1352.03 121.062 1344.98 128.113 1344.98 136.812V191.883C1344.98 200.582 1352.03 207.633 1360.73 207.633H1417.98C1426.68 207.633 1433.73 200.582 1433.73 191.883V136.812C1433.73 128.113 1426.68 121.062 1417.98 121.062Z" fill="white" stroke="#F1F1F1" stroke-width="0.5"/>
<path d="M1417.98 208.134H1360.73C1352.03 208.134 1344.98 215.186 1344.98 223.884V278.956C1344.98 287.654 1352.03 294.706 1360.73 294.706H1417.98C1426.68 294.706 1433.73 287.654 1433.73 278.956V223.884C1433.73 215.186 1426.68 208.134 1417.98 208.134Z" fill="white" stroke="#F1F1F1" stroke-width="0.5"/>
<path d="M1417.98 295.206H1360.73C1352.03 295.206 1344.98 302.258 1344.98 310.956V366.028C1344.98 374.726 1352.03 381.778 1360.73 381.778H1417.98C1426.68 381.778 1433.73 374.726 1433.73 366.028V310.956C1433.73 302.258 1426.68 295.206 1417.98 295.206Z" fill="white" stroke="#F1F1F1" stroke-width="0.5"/>
<path d="M1417.98 382.277H1360.73C1352.03 382.277 1344.98 389.329 1344.98 398.027V453.099C1344.98 461.798 1352.03 468.849 1360.73 468.849H1417.98C1426.68 468.849 1433.73 461.798 1433.73 453.099V398.027C1433.73 389.329 1426.68 382.277 1417.98 382.277Z" fill="white" stroke="#F1F1F1" stroke-width="0.5"/>
<path d="M1417.98 469.35H1360.73C1352.03 469.35 1344.98 476.401 1344.98 485.1V540.171C1344.98 548.87 1352.03 555.921 1360.73 555.921H1417.98C1426.68 555.921 1433.73 548.87 1433.73 540.171V485.1C1433.73 476.401 1426.68 469.35 1417.98 469.35Z" fill="white" stroke="#F1F1F1" stroke-width="0.5"/>
<path d="M58.5691 26.1211H22C13.1634 26.1211 6 33.2845 6 42.1211V568.469C6 577.306 13.1634 584.469 22 584.469H58.5691C67.4057 584.469 74.5691 577.306 74.5691 568.469V42.1211C74.5691 33.2845 67.4057 26.1211 58.5691 26.1211Z" fill="url(#paint0_linear_1_1945)"/>
<path d="M1381.41 26.1211H1417.98C1426.82 26.1211 1433.98 33.2845 1433.98 42.1211V568.469C1433.98 577.306 1426.82 584.469 1417.98 584.469H1381.41C1372.57 584.469 1365.41 577.306 1365.41 568.469V42.1211C1365.41 33.2845 1372.57 26.1211 1381.41 26.1211Z" fill="url(#paint1_linear_1_1945)"/>
<path d="M29.9443 52.569L29.9443 16C29.9443 7.16344 37.1078 3.13124e-07 45.9443 6.99382e-07L1399.47 5.98641e-05C1408.31 6.02503e-05 1415.47 7.1635 1415.47 16.0001L1415.47 52.5691C1415.47 61.4056 1408.31 68.5691 1399.47 68.5691L45.9443 68.569C37.1078 68.569 29.9443 61.4056 29.9443 52.569Z" fill="url(#paint2_linear_1_1945)"/>
<path d="M1410.03 575V538.431C1410.03 529.594 1402.87 522.431 1394.03 522.431L40.5002 522.431C31.6637 522.431 24.5002 529.594 24.5002 538.431V575C24.5002 583.836 31.6637 591 40.5002 591L1394.03 591C1402.87 591 1410.03 583.836 1410.03 575Z" fill="url(#paint3_linear_1_1945)"/>
</g>
<path d="M1261.5 536.5C1395.15 536.5 1503.5 428.153 1503.5 294.5C1503.5 160.847 1395.15 52.5 1261.5 52.5C1127.85 52.5 1019.5 160.847 1019.5 294.5C1019.5 428.153 1127.85 536.5 1261.5 536.5Z" stroke="url(#paint4_linear_1_1945)" stroke-dasharray="24 24"/>
<path d="M1364.5 516.5C1487.11 516.5 1586.5 417.107 1586.5 294.5C1586.5 171.893 1487.11 72.5 1364.5 72.5C1241.89 72.5 1142.5 171.893 1142.5 294.5C1142.5 417.107 1241.89 516.5 1364.5 516.5Z" stroke="url(#paint5_linear_1_1945)" stroke-dasharray="24 24"/>
<path d="M1467.5 499.5C1580.72 499.5 1672.5 407.718 1672.5 294.5C1672.5 181.282 1580.72 89.5 1467.5 89.5C1354.28 89.5 1262.5 181.282 1262.5 294.5C1262.5 407.718 1354.28 499.5 1467.5 499.5Z" stroke="#E0E0E0" stroke-dasharray="24 24"/>
</g>
</g>
<defs>
<linearGradient id="paint0_linear_1_1945" x1="14.163" y1="188.292" x2="64.7735" y2="187.204" gradientUnits="userSpaceOnUse">
<stop stop-color="white"/>
<stop offset="1" stop-color="white" stop-opacity="0"/>
</linearGradient>
<linearGradient id="paint1_linear_1_1945" x1="1425.82" y1="188.292" x2="1375.21" y2="187.204" gradientUnits="userSpaceOnUse">
<stop stop-color="white"/>
<stop offset="1" stop-color="white" stop-opacity="0"/>
</linearGradient>
<linearGradient id="paint2_linear_1_1945" x1="432.369" y1="8.16301" x2="431.93" y2="58.793" gradientUnits="userSpaceOnUse">
<stop stop-color="white"/>
<stop offset="1" stop-color="white" stop-opacity="0"/>
</linearGradient>
<linearGradient id="paint3_linear_1_1945" x1="1007.61" y1="530.601" x2="1008.04" y2="581.231" gradientUnits="userSpaceOnUse">
<stop stop-color="white"/>
<stop offset="1" stop-color="white" stop-opacity="0"/>
</linearGradient>
<linearGradient id="paint4_linear_1_1945" x1="1010.5" y1="314" x2="1441" y2="319.5" gradientUnits="userSpaceOnUse">
<stop stop-color="#E0E0E0"/>
<stop offset="0.931065" stop-color="white"/>
</linearGradient>
<linearGradient id="paint5_linear_1_1945" x1="1142" y1="289" x2="1500.5" y2="295" gradientUnits="userSpaceOnUse">
<stop stop-color="#E0E0E0"/>
<stop offset="0.861692" stop-color="white"/>
</linearGradient>
<clipPath id="clip0_1_1945">
<rect width="1440" height="556" fill="white"/>
</clipPath>
</defs>
</svg>
